<svg width="3600" height="2560" viewBox="0 0 3600 2560" fill="none" xmlns="http://www.w3.org/2000/svg">
<g clip-path="url(#clip0_823_47)">
<line x1="166.5" y1="2.18557e-08" x2="166.5" y2="2560" stroke="#9D8554" stroke-opacity="0.2"/>
<line x1="1440.5" y1="2.18557e-08" x2="1440.5" y2="2560" stroke="#9D8554" stroke-opacity="0.2"/>
<line x1="3600" y1="166.5" x2="-5.46393e-08" y2="166.5" stroke="#9D8554" stroke-opacity="0.2"/>
<line x1="3600" y1="1076.5" x2="-5.46393e-08" y2="1076.5" stroke="#9D8554" stroke-opacity="0.2"/>
<line x1="3600" y1="348.5" x2="-5.46393e-08" y2="348.5" stroke="#9D8554" stroke-opacity="0.2"/>
<line x1="3600" y1="1258.5" x2="-5.46393e-08" y2="1258.5" stroke="#9D8554" stroke-opacity="0.2"/>
<line x1="3600" y1="530.5" x2="-5.46393e-08" y2="530.5" stroke="#9D8554" stroke-opacity="0.2"/>
<line x1="3600" y1="1440.5" x2="-5.46393e-08" y2="1440.5" stroke="#9D8554" stroke-opacity="0.2"/>
<line x1="3600" y1="712.5" x2="-5.46393e-08" y2="712.5" stroke="#9D8554" stroke-opacity="0.2"/>
<line x1="3600" y1="1622.5" x2="-5.46393e-08" y2="1622.5" stroke="#9D8554" stroke-opacity="0.2"/>
<line x1="3600" y1="894.5" x2="-5.46393e-08" y2="894.5" stroke="#9D8554" stroke-opacity="0.2"/>
<line x1="3600" y1="1804.5" x2="-5.46393e-08" y2="1804.5" stroke="#9D8554" stroke-opacity="0.2"/>
<line x1="348.5" y1="2.18557e-08" x2="348.5" y2="2560" stroke="#9D8554" stroke-opacity="0.2"/>
<line x1="1622.5" y1="2.18557e-08" x2="1622.5" y2="2560" stroke="#9D8554" stroke-opacity="0.2"/>
<line x1="530.5" y1="2.18557e-08" x2="530.5" y2="2560" stroke="#9D8554" stroke-opacity="0.2"/>
<line x1="1804.5" y1="2.18557e-08" x2="1804.5" y2="2560" stroke="#9D8554" stroke-opacity="0.2"/>
<line x1="712.5" y1="2.18557e-08" x2="712.5" y2="2560" stroke="#9D8554" stroke-opacity="0.2"/>
<line x1="1986.5" y1="2.18557e-08" x2="1986.5" y2="2560" stroke="#9D8554" stroke-opacity="0.2"/>
<line x1="894.5" y1="2.18557e-08" x2="894.5" y2="2560" stroke="#9D8554" stroke-opacity="0.2"/>
<line x1="2168.5" y1="2.18557e-08" x2="2168.5" y2="2560" stroke="#9D8554" stroke-opacity="0.2"/>
<line x1="1076.5" y1="2.18557e-08" x2="1076.5" y2="2560" stroke="#9D8554" stroke-opacity="0.2"/>
<line x1="2350.5" y1="2.18557e-08" x2="2350.5" y2="2560" stroke="#9D8554" stroke-opacity="0.2"/>
<line x1="1258.5" y1="2.18557e-08" x2="1258.5" y2="2560" stroke="#9D8554" stroke-opacity="0.2"/>
<line x1="2532.5" y1="2.18557e-08" x2="2532.5" y2="2560" stroke="#9D8554" stroke-opacity="0.2"/>
<line x1="182.5" y1="2.18557e-08" x2="182.5" y2="2560" stroke="#9D8554" stroke-opacity="0.2"/>
<line x1="1456.5" y1="2.18557e-08" x2="1456.5" y2="2560" stroke="#9D8554" stroke-opacity="0.2"/>
<line x1="3600" y1="182.5" x2="-5.46393e-08" y2="182.5" stroke="#9D8554" stroke-opacity="0.2"/>
<line x1="3600" y1="1092.5" x2="-5.46393e-08" y2="1092.5" stroke="#9D8554" stroke-opacity="0.2"/>
<line x1="3600" y1="364.5" x2="-5.46393e-08" y2="364.5" stroke="#9D8554" stroke-opacity="0.2"/>
<line x1="3600" y1="1274.5" x2="-5.46393e-08" y2="1274.5" stroke="#9D8554" stroke-opacity="0.2"/>
<line x1="3600" y1="546.5" x2="-5.46393e-08" y2="546.5" stroke="#9D8554" stroke-opacity="0.2"/>
<line x1="3600" y1="1456.5" x2="-5.46393e-08" y2="1456.5" stroke="#9D8554" stroke-opacity="0.2"/>
<line x1="3600" y1="728.5" x2="-5.46393e-08" y2="728.5" stroke="#9D8554" stroke-opacity="0.2"/>
<line x1="3600" y1="1638.5" x2="-5.46393e-08" y2="1638.5" stroke="#9D8554" stroke-opacity="0.2"/>
<line x1="3600" y1="910.5" x2="-5.46393e-08" y2="910.5" stroke="#9D8554" stroke-opacity="0.2"/>
<line x1="3600" y1="1820.5" x2="-5.46393e-08" y2="1820.5" stroke="#9D8554" stroke-opacity="0.2"/>
<line x1="364.5" y1="2.18557e-08" x2="364.5" y2="2560" stroke="#9D8554" stroke-opacity="0.2"/>
<line x1="1638.5" y1="2.18557e-08" x2="1638.5" y2="2560" stroke="#9D8554" stroke-opacity="0.2"/>
<line x1="546.5" y1="2.18557e-08" x2="546.5" y2="2560" stroke="#9D8554" stroke-opacity="0.2"/>
<line x1="1820.5" y1="2.18557e-08" x2="1820.5" y2="2560" stroke="#9D8554" stroke-opacity="0.2"/>
<line x1="728.5" y1="2.18557e-08" x2="728.5" y2="2560" stroke="#9D8554" stroke-opacity="0.2"/>
<line x1="2002.5" y1="2.18557e-08" x2="2002.5" y2="2560" stroke="#9D8554" stroke-opacity="0.2"/>
<line x1="910.5" y1="2.18557e-08" x2="910.5" y2="2560" stroke="#9D8554" stroke-opacity="0.2"/>
<line x1="2184.5" y1="2.18557e-08" x2="2184.5" y2="2560" stroke="#9D8554" stroke-opacity="0.2"/>
<line x1="1092.5" y1="2.18557e-08" x2="1092.5" y2="2560" stroke="#9D8554" stroke-opacity="0.2"/>
<line x1="2366.5" y1="2.18557e-08" x2="2366.5" y2="2560" stroke="#9D8554" stroke-opacity="0.2"/>
<line x1="1274.5" y1="2.18557e-08" x2="1274.5" y2="2560" stroke="#9D8554" stroke-opacity="0.2"/>
<line x1="2548.5" y1="2.18557e-08" x2="2548.5" y2="2560" stroke="#9D8554" stroke-opacity="0.2"/>
</g>
<defs>
<clipPath id="clip0_823_47">
<rect width="3600" height="2560" fill="white"/>
</clipPath>
</defs>
</svg>
